# Alias OBJ Model File
# Exported from SketchUp, (c) 2000-2012 Trimble Navigation Limited
# File units = meters

mtllib Elevator.mtl

g Mesh1 Model

usemtl M_0103_Blue
v -0.866025 0.5 0.5
vt -34.0955 -19.685
vn 0 1 -0
v 0 0.5 1
vt 0 -39.3701
v 0.866025 0.5 0.5
vt 34.0955 -19.685
v 0.866025 0.5 -0.5
vt 34.0955 19.685
v 1.22465e-16 0.5 -1
vt 4.82144e-15 39.3701
v -0.866025 0.5 -0.5
vt -34.0955 19.685
f 1/1/1 2/2/1 3/3/1 4/4/1 5/5/1 6/6/1 

vt 19.685 19.685
vn -0.5 0 0.866025
vt -19.685 19.685
v -0.866025 -0.5 0.5
vt -19.685 -19.685
v 0 -0.5 1
vt 19.685 -19.685
f 2/7/2 1/8/2 7/9/2 8/10/2 

vn -1 0 -5.41434e-16
v -0.866025 -0.5 -0.5
f 1/7/3 6/8/3 9/9/3 7/10/3 

vn -0.5 0 -0.866025
v 1.22465e-16 -0.5 -1
f 6/7/4 5/8/4 10/9/4 9/10/4 

vn 0.5 0 -0.866025
v 0.866025 -0.5 -0.5
f 5/7/5 4/8/5 11/9/5 10/10/5 

vn 1 0 1.80478e-16
v 0.866025 -0.5 0.5
f 4/7/6 3/8/6 12/9/6 11/10/6 

vn 0.5 0 0.866025
f 3/7/7 2/8/7 8/9/7 12/10/7 

vn 0 -1 -0
vt -4.82144e-15 39.3701
f 8/2/8 7/3/8 9/4/8 10/11/8 11/6/8 12/1/8 

