# Alias OBJ Model File
# Exported from SketchUp, (c) 2000-2012 Trimble Navigation Limited
# File units = meters

mtllib Ring.mtl

g Mesh1 Model

usemtl FrontColor
v 10.6894 0.25 16.9038
vt -102.777 9.84252
vn 0.534468 6.9462e-17 0.845189
v 10.6894 -0.25 16.9038
vt -102.777 -9.84252
v 14.5064 -0.25 13.7226
vt 92.8491 -9.84252
vn 0.640215 1.37735e-16 0.768196
v 14.7001 -0.25 13.5612
vt 102.777 -9.84252
v 14.7001 -9.02389e-16 13.5612
vt 102.777 -1.43052e-13
v 14.7001 0.25 13.5612
vt 102.777 9.84252
v 14.5064 0.25 13.7226
vt 92.8491 9.84252
f 1/1/1 2/2/1 3/3/2 4/4/2 5/5/2 6/6/2 7/7/2 

v 5.95011 0.25 19.0944
vn 0.297505 0 0.95472
v 5.95011 -0.25 19.0944
f 8/1/3 9/2/3 2/4/1 1/6/1 

v 0.80537 0.25 19.9838
vn 0.0402685 0 0.999189
v 0.80537 -0.25 19.9838
f 10/1/4 11/2/4 9/4/3 8/6/3 

v -4.39425 0.25 19.5113
vn -0.219713 0 0.975565
v -4.39425 -0.25 19.5113
f 12/1/5 13/2/5 11/4/4 10/6/4 

v -9.29442 0.25 17.7091
vn -0.464721 1.18812e-17 0.885457
v -9.29442 -0.25 17.7091
f 14/1/6 15/2/6 13/4/5 12/6/5 

v -13.5612 0.25 14.7001
vn -0.576321 2.35591e-17 0.817224
v -13.5612 -9.02389e-16 14.7001
vt -102.777 -5.39189e-14
v -13.5612 -0.25 14.7001
v -13.3551 -0.25 14.8455
vt -92.8491 -9.84252
v -13.3551 0.25 14.8455
vt -92.8491 9.84252
f 16/1/7 17/8/7 18/2/7 19/9/7 15/4/6 14/6/6 20/10/7 

v -16.9038 0.25 10.6894
vn -0.845189 6.31195e-18 0.534468
v -16.9038 -0.25 10.6894
v -13.7226 -0.25 14.5064
vn -0.768196 1.25159e-17 0.640215
vt 102.777 -4.52979e-14
v -13.7226 0.25 14.5064
f 21/1/8 22/2/8 23/3/9 18/4/9 17/11/9 16/6/9 24/7/9 

v -19.0944 0.25 5.95011
vn -0.95472 0 0.297505
v -19.0944 -0.25 5.95011
f 25/1/10 26/2/10 22/4/8 21/6/8 

v -19.9838 0.25 0.80537
vn -0.999189 0 0.0402685
v -19.9838 -0.25 0.80537
f 27/1/11 28/2/11 26/4/10 25/6/10 

v -19.5113 0.25 -4.39425
vn -0.975565 0 -0.219713
v -19.5113 -0.25 -4.39425
f 29/1/12 30/2/12 28/4/11 27/6/11 

v -17.7091 0.25 -9.29442
vn -0.885457 1.18812e-17 -0.464721
v -17.7091 -0.25 -9.29442
f 31/1/13 32/2/13 30/4/12 29/6/12 

v -14.7001 0.25 -13.5612
vn -0.817224 2.35591e-17 -0.576321
v -14.7001 -9.02389e-16 -13.5612
v -14.7001 -0.25 -13.5612
v -14.8455 -0.25 -13.3551
v -14.8455 0.25 -13.3551
f 33/1/14 34/8/14 35/2/14 36/9/14 32/4/13 31/6/13 37/10/14 

v -10.6894 0.25 -16.9038
vn -0.534468 3.7887e-17 -0.845189
v -10.6894 -0.25 -16.9038
v -14.5064 -0.25 -13.7226
vn -0.640215 7.51257e-17 -0.768196
vt 102.777 -9.41751e-14
v -14.5064 0.25 -13.7226
f 38/1/15 39/2/15 40/3/16 35/4/16 34/12/16 33/6/16 41/7/16 

v -5.95011 0.25 -19.0944
vn -0.297505 0 -0.95472
v -5.95011 -0.25 -19.0944
f 42/1/17 43/2/17 39/4/15 38/6/15 

v -0.80537 0.25 -19.9838
vn -0.0402685 0 -0.999189
v -0.80537 -0.25 -19.9838
f 44/1/18 45/2/18 43/4/17 42/6/17 

v 4.39425 0.25 -19.5113
vn 0.219713 0 -0.975565
v 4.39425 -0.25 -19.5113
f 46/1/19 47/2/19 45/4/18 44/6/18 

v 9.29442 0.25 -17.7091
vn 0.464721 4.0305e-17 -0.885457
v 9.29442 -0.25 -17.7091
f 48/1/20 49/2/20 47/4/19 46/6/19 

v 13.5612 0.25 -14.7001
vn 0.576321 7.99203e-17 -0.817224
v 13.5612 -9.02389e-16 -14.7001
vt -102.777 -9.79182e-14
v 13.5612 -0.25 -14.7001
v 13.3551 -0.25 -14.8455
v 13.3551 0.25 -14.8455
f 50/1/21 51/13/21 52/2/21 53/9/21 49/4/20 48/6/20 54/10/21 

v 16.9038 0.25 -10.6894
vn 0.845189 3.7887e-17 -0.534468
v 16.9038 -0.25 -10.6894
v 13.7226 -0.25 -14.5064
vn 0.768196 7.51257e-17 -0.640215
v 13.7226 0.25 -14.5064
f 55/1/22 56/2/22 57/3/23 52/4/23 51/12/23 50/6/23 58/7/23 

v 19.0944 0.25 -5.95011
vn 0.95472 0 -0.297505
v 19.0944 -0.25 -5.95011
f 59/1/24 60/2/24 56/4/22 55/6/22 

v 19.9838 0.25 -0.80537
vn 0.999189 0 -0.0402685
v 19.9838 -0.25 -0.80537
f 61/1/25 62/2/25 60/4/24 59/6/24 

v 19.5113 0.25 4.39425
vn 0.975565 0 0.219713
v 19.5113 -0.25 4.39425
f 63/1/26 64/2/26 62/4/25 61/6/25 

v 17.7091 0.25 9.29442
vn 0.885457 1.18812e-17 0.464721
v 17.7091 -0.25 9.29442
f 65/1/27 66/2/27 64/4/26 63/6/26 

vn 0.817224 2.35591e-17 0.576321
v 14.8455 -0.25 13.3551
v 14.8455 0.25 13.3551
f 6/1/28 5/8/28 4/2/28 67/9/28 66/4/27 65/6/27 68/10/28 

vt -578.746 -533.905
vn 0 -1 -0
v 14.9971 -0.25 0.293219
vt -590.438 -11.5441
vt -584.467 -525.792
f 4/14/29 69/15/29 67/16/29

vt -571.12 -540.261
f 3/17/29 69/15/29 4/14/29

v 14.4102 -0.25 4.16477
vt -567.332 -163.967
f 3/17/29 70/18/29 69/15/29

v 12.8413 -0.25 7.7525
vt -505.563 -305.217
f 3/17/29 71/19/29 70/18/29

vt -420.841 -665.503
f 2/20/29 71/19/29 3/17/29

v 10.3972 -0.25 10.8119
vt -409.34 -425.666
f 2/20/29 72/21/29 71/19/29

v 7.24463 -0.25 13.1345
vt -285.222 -517.107
f 2/20/29 73/22/29 72/21/29

vt -234.256 -751.748
f 9/23/29 73/22/29 2/20/29

v 3.59832 -0.25 14.562
vt -141.666 -573.307
f 9/23/29 74/24/29 73/22/29

vt -31.7075 -786.763
f 11/25/29 74/24/29 9/23/29

v -0.293219 -0.25 14.9971
vt 11.5441 -590.438
f 11/25/29 75/26/29 74/24/29

v -4.16477 -0.25 14.4102
vt 163.967 -567.332
f 11/25/29 76/27/29 75/26/29

vt 173.002 -768.161
f 13/28/29 76/27/29 11/25/29

v -7.7525 -0.25 12.8413
vt 305.217 -505.563
f 13/28/29 77/29/29 76/27/29

vt 365.922 -697.21
f 15/30/29 77/29/29 13/28/29

v -10.8119 -0.25 10.3972
vt 425.666 -409.34
f 15/30/29 78/31/29 77/29/29

v -13.1345 -0.25 7.24463
vt 517.107 -285.222
f 15/30/29 79/32/29 78/31/29

vt 525.792 -584.467
f 19/33/29 79/32/29 15/30/29

vt 533.905 -578.746
f 18/34/29 79/32/29 19/33/29

vt 540.261 -571.12
f 23/35/29 79/32/29 18/34/29

v -14.562 -0.25 3.59832
vt 573.307 -141.666
f 23/35/29 80/36/29 79/32/29

v -14.9971 -0.25 -0.293219
vt 590.438 11.5441
f 23/35/29 81/37/29 80/36/29

vt 665.503 -420.841
f 81/37/29 23/35/29 22/38/29

vt 584.467 525.792
f 22/38/29 36/39/29 81/37/29

vt 697.21 365.922
f 22/38/29 32/40/29 36/39/29

vt 751.748 -234.256
f 26/41/29 32/40/29 22/38/29

vt 768.161 173.002
f 26/41/29 30/42/29 32/40/29

vt 786.763 -31.7075
f 30/42/29 26/41/29 28/43/29

v -14.4102 -0.25 -4.16477
vt 567.332 163.967
f 81/37/29 36/39/29 82/44/29

vt 578.746 533.905
f 82/44/29 36/39/29 35/45/29

vt 571.12 540.261
f 82/44/29 35/45/29 40/46/29

vt 420.841 665.503
f 82/44/29 40/46/29 39/47/29

v -12.8413 -0.25 -7.7525
vt 505.563 305.217
f 82/44/29 39/47/29 83/48/29

v -10.3972 -0.25 -10.8119
vt 409.34 425.666
f 83/48/29 39/47/29 84/49/29

vt 234.256 751.748
f 84/49/29 39/47/29 43/50/29

v -7.24463 -0.25 -13.1345
vt 285.222 517.107
f 84/49/29 43/50/29 85/51/29

v -3.59832 -0.25 -14.562
vt 141.666 573.307
f 85/51/29 43/50/29 86/52/29

vt 31.7075 786.763
f 86/52/29 43/50/29 45/53/29

v 0.293219 -0.25 -14.9971
vt -11.5441 590.438
f 86/52/29 45/53/29 87/54/29

vt -173.002 768.161
f 87/54/29 45/53/29 47/55/29

v 4.16477 -0.25 -14.4102
vt -163.967 567.332
f 87/54/29 47/55/29 88/56/29

v 7.7525 -0.25 -12.8413
vt -305.217 505.563
f 88/56/29 47/55/29 89/57/29

vt -365.922 697.21
f 89/57/29 47/55/29 49/58/29

v 10.8119 -0.25 -10.3972
vt -425.666 409.34
f 89/57/29 49/58/29 90/59/29

vt -525.792 584.467
f 90/59/29 49/58/29 53/60/29

v 13.1345 -0.25 -7.24463
vt -517.107 285.222
f 90/59/29 53/60/29 91/61/29

v 14.562 -0.25 -3.59832
vt -573.307 141.666
f 91/61/29 53/60/29 92/62/29

vt -533.905 578.746
f 92/62/29 53/60/29 52/63/29

vt -540.261 571.12
f 92/62/29 52/63/29 57/64/29

vt -665.503 420.841
f 92/62/29 57/64/29 56/65/29

f 92/62/29 56/65/29 69/15/29

vt -697.21 -365.922
f 66/66/29 69/15/29 56/65/29

f 67/16/29 69/15/29 66/66/29

vt -751.748 234.256
f 66/66/29 56/65/29 60/67/29

vt -768.161 -173.002
f 66/66/29 60/67/29 64/68/29

vt -786.763 31.7075
f 64/68/29 60/67/29 62/69/29

v 14.562 0.25 -3.59832
vt -77.0824 9.84252
vn -0.970801 0 0.239888
vt -77.0824 -9.84252
vt 77.0824 -9.84252
vn -0.999809 0 -0.019548
v 14.9971 0.25 0.293219
vt 77.0824 9.84252
f 93/70/30 92/71/30 69/72/31 94/73/31 

v 13.1345 0.25 -7.24463
vn -0.875634 0 0.482975
f 95/70/32 91/71/32 92/72/30 93/73/30 

v 10.8119 0.25 -10.3972
vn -0.720794 0 0.693149
f 96/70/33 90/71/33 91/72/32 95/73/32 

v 7.7525 0.25 -12.8413
vn -0.516833 0 0.856086
f 97/70/34 89/71/34 90/72/33 96/73/33 

v 4.16477 0.25 -14.4102
vn -0.277651 0 0.960682
f 98/70/35 88/71/35 89/72/34 97/73/34 

v 0.293219 0.25 -14.9971
vn -0.019548 0 0.999809
f 99/70/36 87/71/36 88/72/35 98/73/35 

v -3.59832 0.25 -14.562
vn 0.239888 0 0.970801
f 100/70/37 86/71/37 87/72/36 99/73/36 

v -7.24463 0.25 -13.1345
vn 0.482975 0 0.875634
f 101/70/38 85/71/38 86/72/37 100/73/37 

v -10.3972 0.25 -10.8119
vn 0.693149 0 0.720794
f 102/70/39 84/71/39 85/72/38 101/73/38 

v -12.8413 0.25 -7.7525
vn 0.856086 0 0.516833
f 103/70/40 83/71/40 84/72/39 102/73/39 

v -14.4102 0.25 -4.16477
vn 0.960682 0 0.277651
f 104/70/41 82/71/41 83/72/40 103/73/40 

v -14.9971 0.25 -0.293219
vn 0.999809 0 0.019548
f 105/70/42 81/71/42 82/72/41 104/73/41 

v -14.562 0.25 3.59832
vn 0.970801 0 -0.239888
f 106/70/43 80/71/43 81/72/42 105/73/42 

v -13.1345 0.25 7.24463
vn 0.875634 0 -0.482975
f 107/70/44 79/71/44 80/72/43 106/73/43 

v -10.8119 0.25 10.3972
vn 0.720794 0 -0.693149
f 108/70/45 78/71/45 79/72/44 107/73/44 

v -7.7525 0.25 12.8413
vn 0.516833 0 -0.856086
f 109/70/46 77/71/46 78/72/45 108/73/45 

v -4.16477 0.25 14.4102
vn 0.277651 0 -0.960682
f 110/70/47 76/71/47 77/72/46 109/73/46 

v -0.293219 0.25 14.9971
vn 0.019548 0 -0.999809
f 111/70/48 75/71/48 76/72/47 110/73/47 

v 3.59832 0.25 14.562
vn -0.239888 0 -0.970801
f 112/70/49 74/71/49 75/72/48 111/73/48 

v 7.24463 0.25 13.1345
vn -0.482975 0 -0.875634
f 113/70/50 73/71/50 74/72/49 112/73/49 

v 10.3972 0.25 10.8119
vn -0.693149 0 -0.720794
f 114/70/51 72/71/51 73/72/50 113/73/50 

v 12.8413 0.25 7.7525
vn -0.856086 0 -0.516833
f 115/70/52 71/71/52 72/72/51 114/73/51 

v 14.4102 0.25 4.16477
vn -0.960682 0 -0.277651
f 116/70/53 70/71/53 71/72/52 115/73/52 

f 94/70/31 69/71/31 70/72/53 116/73/53 

usemtl M_0133_Gray
vt 567.332 -163.967
vn 0 1 -0
vt 571.12 -540.261
vt 590.438 -11.5441
f 116/74/54 7/75/54 94/76/54

vt 505.563 -305.217
f 115/77/54 7/75/54 116/74/54

vt 420.841 -665.503
f 115/77/54 1/78/54 7/75/54

vt 409.34 -425.666
f 114/79/54 1/78/54 115/77/54

vt 285.222 -517.107
f 113/80/54 1/78/54 114/79/54

vt 234.256 -751.748
f 113/80/54 8/81/54 1/78/54

vt 141.666 -573.307
f 112/82/54 8/81/54 113/80/54

vt 31.7075 -786.763
f 112/82/54 10/83/54 8/81/54

vt -11.5441 -590.438
f 111/84/54 10/83/54 112/82/54

vt -163.967 -567.332
f 110/85/54 10/83/54 111/84/54

vt -173.002 -768.161
f 110/85/54 12/86/54 10/83/54

vt -305.217 -505.563
f 109/87/54 12/86/54 110/85/54

vt -365.922 -697.21
f 109/87/54 14/88/54 12/86/54

vt -425.666 -409.34
f 108/89/54 14/88/54 109/87/54

vt -517.107 -285.222
f 107/90/54 14/88/54 108/89/54

vt -525.792 -584.467
f 107/90/54 20/91/54 14/88/54

vt -533.905 -578.746
f 107/90/54 16/92/54 20/91/54

vt -540.261 -571.12
f 107/90/54 24/93/54 16/92/54

vt -573.307 -141.666
f 106/94/54 24/93/54 107/90/54

vt -590.438 11.5441
f 105/95/54 24/93/54 106/94/54

vt -665.503 -420.841
f 24/93/54 105/95/54 21/96/54

vt -584.467 525.792
f 37/97/54 21/96/54 105/95/54

vt -697.21 365.922
f 31/98/54 21/96/54 37/97/54

vt -751.748 -234.256
f 31/98/54 25/99/54 21/96/54

vt -768.161 173.002
f 29/100/54 25/99/54 31/98/54

vt -786.763 -31.7075
f 25/99/54 29/100/54 27/101/54

vt -567.332 163.967
f 37/97/54 105/95/54 104/102/54

vt -578.746 533.905
f 37/97/54 104/102/54 33/103/54

vt -571.12 540.261
f 33/103/54 104/102/54 41/104/54

vt -420.841 665.503
f 41/104/54 104/102/54 38/105/54

vt -505.563 305.217
f 38/105/54 104/102/54 103/106/54

vt -409.34 425.666
f 38/105/54 103/106/54 102/107/54

vt -234.256 751.748
f 38/105/54 102/107/54 42/108/54

vt -285.222 517.107
f 42/108/54 102/107/54 101/109/54

vt -141.666 573.307
f 42/108/54 101/109/54 100/110/54

vt -31.7075 786.763
f 42/108/54 100/110/54 44/111/54

vt 11.5441 590.438
f 44/111/54 100/110/54 99/112/54

vt 173.002 768.161
f 44/111/54 99/112/54 46/113/54

vt 163.967 567.332
f 46/113/54 99/112/54 98/114/54

vt 305.217 505.563
f 46/113/54 98/114/54 97/115/54

vt 365.922 697.21
f 46/113/54 97/115/54 48/116/54

vt 425.666 409.34
f 48/116/54 97/115/54 96/117/54

vt 525.792 584.467
f 48/116/54 96/117/54 54/118/54

vt 517.107 285.222
f 54/118/54 96/117/54 95/119/54

vt 573.307 141.666
f 54/118/54 95/119/54 93/120/54

vt 533.905 578.746
f 54/118/54 93/120/54 50/121/54

vt 540.261 571.12
f 50/121/54 93/120/54 58/122/54

vt 665.503 420.841
f 58/122/54 93/120/54 55/123/54

f 55/123/54 93/120/54 94/76/54

vt 697.21 -365.922
f 94/76/54 65/124/54 55/123/54

vt 584.467 -525.792
f 94/76/54 68/125/54 65/124/54

vt 578.746 -533.905
f 94/76/54 6/126/54 68/125/54

f 94/76/54 7/75/54 6/126/54

vt 751.748 234.256
f 55/123/54 65/124/54 59/127/54

vt 768.161 -173.002
f 59/127/54 65/124/54 63/128/54

vt 786.763 31.7075
f 59/127/54 63/128/54 61/129/54

